<svg xmlns="http://www.w3.org/2000/svg" xmlns:xlink="http://www.w3.org/1999/xlink" width="500" zoomAndPan="magnify" viewBox="0 0 375 374.999991" height="500" preserveAspectRatio="xMidYMid meet" version="1.0"><defs><clipPath id="id1"><path d="M 156 75.410156 L 219 75.410156 L 219 193 L 156 193 Z M 156 75.410156 " clip-rule="nonzero"/></clipPath><clipPath id="id2"><path d="M 37.5 216 L 337.5 216 L 337.5 267 L 37.5 267 Z M 37.5 216 " clip-rule="nonzero"/></clipPath></defs><rect x="-37.5" width="450" fill="rgb(96.469116%, 96.469116%, 91.369629%)" y="-37.499999" height="449.999989" fill-opacity="1"/><rect x="-37.5" width="450" fill="rgb(100%, 100%, 100%)" y="-37.499999" height="449.999989" fill-opacity="1"/><rect x="-37.5" width="450" fill="rgb(96.469116%, 96.469116%, 91.369629%)" y="-37.499999" height="449.999989" fill-opacity="1"/><g clip-path="url(#id1)"><path fill="rgb(0.779724%, 84.309387%, 87.449646%)" d="M 218.226562 143.550781 L 187.535156 192.429688 L 156.851562 143.550781 C 156.851562 143.550781 159.144531 99.082031 187.542969 75.433594 C 215.933594 99.082031 218.226562 143.550781 218.226562 143.550781 Z M 218.226562 143.550781 " fill-opacity="1" fill-rule="nonzero"/></g><path fill="rgb(1.179504%, 74.899292%, 77.648926%)" d="M 187.535156 248.511719 C 187.535156 248.511719 187.523438 248.472656 187.507812 248.40625 C 187.488281 248.472656 187.476562 248.511719 187.476562 248.511719 C 95.828125 183.394531 149.0625 93.691406 149.0625 93.691406 C 171.15625 121.003906 182.292969 148.808594 187.511719 173.183594 C 192.730469 148.8125 203.867188 121.003906 225.960938 93.691406 C 225.957031 93.691406 279.191406 183.394531 187.535156 248.511719 Z M 187.535156 248.511719 " fill-opacity="1" fill-rule="nonzero"/><path fill="rgb(1.179504%, 69.40918%, 72.158813%)" d="M 187.480469 248.511719 C 58.792969 248.511719 90.734375 122.15625 90.734375 122.15625 C 174.515625 183.039062 187.480469 248.511719 187.480469 248.511719 Z M 187.535156 248.511719 C 316.21875 248.511719 284.285156 122.15625 284.285156 122.15625 C 200.496094 183.039062 187.535156 248.511719 187.535156 248.511719 Z M 187.535156 248.511719 " fill-opacity="1" fill-rule="nonzero"/><g clip-path="url(#id2)"><path fill="rgb(1.179504%, 59.609985%, 61.959839%)" d="M 37.5 223.765625 C 124.988281 196.863281 187.480469 248.519531 187.480469 248.519531 C 114.804688 299.617188 37.5 223.765625 37.5 223.765625 Z M 337.519531 223.765625 C 250.03125 196.863281 187.535156 248.519531 187.535156 248.519531 C 260.214844 299.617188 337.519531 223.765625 337.519531 223.765625 Z M 337.519531 223.765625 " fill-opacity="1" fill-rule="nonzero"/></g></svg>