<svg xmlns="http://www.w3.org/2000/svg" xmlns:xlink="http://www.w3.org/1999/xlink" width="500" zoomAndPan="magnify" viewBox="0 0 375 374.999991" height="500" preserveAspectRatio="xMidYMid meet" version="1.0"><defs><g><g id="id1"/></g><clipPath id="id2"><path d="M 150 51.386719 L 225 51.386719 L 225 194 L 150 194 Z M 150 51.386719 " clip-rule="nonzero"/></clipPath><clipPath id="id3"><path d="M 5.355469 221 L 369.1875 221 L 369.1875 283 L 5.355469 283 Z M 5.355469 221 " clip-rule="nonzero"/></clipPath><clipPath id="id4"><path d="M 156 73.265625 L 219 73.265625 L 219 193 L 156 193 Z M 156 73.265625 " clip-rule="nonzero"/></clipPath><clipPath id="id5"><path d="M 34.628906 216 L 340.371094 216 L 340.371094 268 L 34.628906 268 Z M 34.628906 216 " clip-rule="nonzero"/></clipPath></defs><g clip-path="url(#id2)"><path fill="rgb(0%, 45.489502%, 47.44873%)" d="M 224.535156 134.070312 L 187.3125 193.382812 L 150.101562 134.070312 C 150.101562 134.070312 152.878906 80.109375 187.320312 51.410156 C 221.753906 80.109375 224.535156 134.070312 224.535156 134.070312 Z M 224.535156 134.070312 " fill-opacity="1" fill-rule="nonzero"/></g><path fill="rgb(0%, 45.489502%, 47.44873%)" d="M 187.3125 261.4375 C 187.3125 261.4375 187.300781 261.386719 187.277344 261.308594 C 187.257812 261.386719 187.242188 261.4375 187.242188 261.4375 C 76.09375 182.417969 140.652344 73.566406 140.652344 73.566406 C 167.449219 106.710938 180.957031 140.449219 187.285156 170.027344 C 193.613281 140.457031 207.121094 106.710938 233.917969 73.566406 C 233.910156 73.566406 298.472656 182.417969 187.3125 261.4375 Z M 187.3125 261.4375 " fill-opacity="1" fill-rule="nonzero"/><path fill="rgb(0%, 45.489502%, 47.44873%)" d="M 187.25 261.4375 C 31.175781 261.4375 69.917969 108.109375 69.917969 108.109375 C 171.523438 181.988281 187.25 261.4375 187.25 261.4375 Z M 187.3125 261.4375 C 343.378906 261.4375 304.644531 108.109375 304.644531 108.109375 C 203.03125 181.988281 187.3125 261.4375 187.3125 261.4375 Z M 187.3125 261.4375 " fill-opacity="1" fill-rule="nonzero"/><g clip-path="url(#id3)"><path fill="rgb(0%, 45.489502%, 47.44873%)" d="M 5.355469 231.40625 C 111.457031 198.761719 187.25 261.445312 187.25 261.445312 C 99.105469 323.453125 5.355469 231.40625 5.355469 231.40625 Z M 369.207031 231.40625 C 263.105469 198.761719 187.3125 261.445312 187.3125 261.445312 C 275.457031 323.453125 369.207031 231.40625 369.207031 231.40625 Z M 369.207031 231.40625 " fill-opacity="1" fill-rule="nonzero"/></g><g clip-path="url(#id4)"><path fill="rgb(0.779724%, 84.309387%, 87.449646%)" d="M 218.8125 142.480469 L 187.535156 192.125 L 156.265625 142.480469 C 156.265625 142.480469 158.601562 97.3125 187.542969 73.289062 C 216.480469 97.3125 218.8125 142.480469 218.8125 142.480469 Z M 218.8125 142.480469 " fill-opacity="1" fill-rule="nonzero"/></g><path fill="rgb(1.179504%, 74.899292%, 77.648926%)" d="M 187.535156 249.089844 C 187.535156 249.089844 187.523438 249.046875 187.507812 248.980469 C 187.488281 249.046875 187.476562 249.089844 187.476562 249.089844 C 94.074219 182.949219 148.324219 91.832031 148.324219 91.832031 C 170.84375 119.578125 182.195312 147.816406 187.511719 172.574219 C 192.828125 147.824219 204.179688 119.578125 226.699219 91.832031 C 226.691406 91.832031 280.945312 182.949219 187.535156 249.089844 Z M 187.535156 249.089844 " fill-opacity="1" fill-rule="nonzero"/><path fill="rgb(1.179504%, 69.40918%, 72.158813%)" d="M 187.480469 249.089844 C 56.328125 249.089844 88.882812 120.75 88.882812 120.75 C 174.265625 182.589844 187.480469 249.089844 187.480469 249.089844 Z M 187.535156 249.089844 C 318.683594 249.089844 286.136719 120.75 286.136719 120.75 C 200.746094 182.589844 187.535156 249.089844 187.535156 249.089844 Z M 187.535156 249.089844 " fill-opacity="1" fill-rule="nonzero"/><g clip-path="url(#id5)"><path fill="rgb(1.179504%, 59.609985%, 61.959839%)" d="M 34.628906 223.953125 C 123.789062 196.628906 187.480469 249.097656 187.480469 249.097656 C 113.414062 300.996094 34.628906 223.953125 34.628906 223.953125 Z M 340.386719 223.953125 C 251.226562 196.628906 187.535156 249.097656 187.535156 249.097656 C 261.605469 300.996094 340.386719 223.953125 340.386719 223.953125 Z M 340.386719 223.953125 " fill-opacity="1" fill-rule="nonzero"/></g><g fill="rgb(96.469116%, 96.469116%, 91.369629%)" fill-opacity="1"><g transform="translate(119.299941, 236.999984)"><g><path d="M 19.265625 0.75 C 17.359375 0.75 15.851562 0.175781 14.75 -0.96875 C 13.644531 -2.125 13.09375 -3.65625 13.09375 -5.5625 L 13.09375 -100.53125 C 13.09375 -102.425781 13.644531 -103.953125 14.75 -105.109375 C 15.851562 -106.265625 17.359375 -106.84375 19.265625 -106.84375 C 21.171875 -106.84375 22.675781 -106.265625 23.78125 -105.109375 C 24.882812 -103.953125 25.4375 -102.425781 25.4375 -100.53125 L 25.4375 -5.5625 C 25.4375 -3.65625 24.882812 -2.125 23.78125 -0.96875 C 22.675781 0.175781 21.171875 0.75 19.265625 0.75 Z M 19.265625 0.75 "/></g></g></g><g fill="rgb(96.469116%, 96.469116%, 91.369629%)" fill-opacity="1"><g transform="translate(157.819927, 236.999984)"><g><path d="M 19.40625 0 C 17.5 0 15.96875 -0.550781 14.8125 -1.65625 C 13.664062 -2.757812 13.09375 -4.210938 13.09375 -6.015625 L 13.09375 -100.078125 C 13.09375 -101.878906 13.664062 -103.332031 14.8125 -104.4375 C 15.96875 -105.539062 17.5 -106.09375 19.40625 -106.09375 L 48.75 -106.09375 C 65.707031 -106.09375 78.828125 -101.5 88.109375 -92.3125 C 97.390625 -83.132812 102.03125 -70.070312 102.03125 -53.125 C 102.03125 -36.164062 97.363281 -23.070312 88.03125 -13.84375 C 78.695312 -4.613281 65.601562 0 48.75 0 Z M 48 -10.53125 C 75.488281 -10.53125 89.234375 -24.726562 89.234375 -53.125 C 89.234375 -81.414062 75.488281 -95.5625 48 -95.5625 L 25.4375 -95.5625 L 25.4375 -10.53125 Z M 48 -10.53125 "/></g></g></g></svg>