<svg xmlns="http://www.w3.org/2000/svg" xmlns:xlink="http://www.w3.org/1999/xlink" width="500" zoomAndPan="magnify" viewBox="0 0 375 374.999991" height="500" preserveAspectRatio="xMidYMid meet" version="1.0"><defs><clipPath id="id1"><path d="M 156 75.410156 L 218 75.410156 L 218 193 L 156 193 Z M 156 75.410156 " clip-rule="nonzero"/></clipPath><clipPath id="id2"><path d="M 37.5 215 L 337.121094 215 L 337.121094 267 L 37.5 267 Z M 37.5 215 " clip-rule="nonzero"/></clipPath><clipPath id="id3"><path d="M 161 93.425781 L 214 93.425781 L 214 192 L 161 192 Z M 161 93.425781 " clip-rule="nonzero"/></clipPath><clipPath id="id4"><path d="M 61.609375 211 L 313.390625 211 L 313.390625 254 L 61.609375 254 Z M 61.609375 211 " clip-rule="nonzero"/></clipPath></defs><g clip-path="url(#id1)"><path fill="rgb(0%, 45.489502%, 47.44873%)" d="M 218 143.5 L 187.347656 192.34375 L 156.703125 143.5 C 156.703125 143.5 158.988281 99.0625 187.351562 75.429688 C 215.710938 99.0625 218 143.5 218 143.5 Z M 218 143.5 " fill-opacity="1" fill-rule="nonzero"/></g><path fill="rgb(0%, 45.489502%, 47.44873%)" d="M 187.347656 248.390625 C 187.347656 248.390625 187.335938 248.347656 187.316406 248.28125 C 187.300781 248.347656 187.289062 248.390625 187.289062 248.390625 C 95.753906 183.316406 148.921875 93.671875 148.921875 93.671875 C 170.988281 120.96875 182.113281 148.753906 187.324219 173.113281 C 192.535156 148.757812 203.65625 120.96875 225.726562 93.671875 C 225.71875 93.671875 278.886719 183.316406 187.347656 248.390625 Z M 187.347656 248.390625 " fill-opacity="1" fill-rule="nonzero"/><path fill="rgb(0%, 45.489502%, 47.44873%)" d="M 187.292969 248.390625 C 58.765625 248.390625 90.667969 122.121094 90.667969 122.121094 C 174.34375 182.960938 187.292969 248.390625 187.292969 248.390625 Z M 187.347656 248.390625 C 315.871094 248.390625 283.972656 122.121094 283.972656 122.121094 C 200.292969 182.960938 187.347656 248.390625 187.347656 248.390625 Z M 187.347656 248.390625 " fill-opacity="1" fill-rule="nonzero"/><g clip-path="url(#id2)"><path fill="rgb(0%, 45.489502%, 47.44873%)" d="M 37.5 223.660156 C 124.875 196.777344 187.292969 248.394531 187.292969 248.394531 C 114.707031 299.460938 37.5 223.660156 37.5 223.660156 Z M 337.140625 223.660156 C 249.761719 196.777344 187.347656 248.394531 187.347656 248.394531 C 259.933594 299.460938 337.140625 223.660156 337.140625 223.660156 Z M 337.140625 223.660156 " fill-opacity="1" fill-rule="nonzero"/></g><g clip-path="url(#id3)"><path fill="rgb(0.779724%, 84.309387%, 87.449646%)" d="M 213.289062 150.425781 L 187.53125 191.308594 L 161.777344 150.425781 C 161.777344 150.425781 163.699219 113.226562 187.535156 93.445312 C 211.363281 113.226562 213.289062 150.425781 213.289062 150.425781 Z M 213.289062 150.425781 " fill-opacity="1" fill-rule="nonzero"/></g><path fill="rgb(1.179504%, 74.899292%, 77.648926%)" d="M 187.53125 238.222656 C 187.53125 238.222656 187.519531 238.1875 187.503906 238.128906 C 187.488281 238.1875 187.480469 238.222656 187.480469 238.222656 C 110.5625 183.75 155.238281 108.714844 155.238281 108.714844 C 173.785156 131.566406 183.128906 154.820312 187.511719 175.210938 C 191.890625 154.824219 201.238281 131.566406 219.78125 108.714844 C 219.777344 108.714844 264.453125 183.75 187.53125 238.222656 Z M 187.53125 238.222656 " fill-opacity="1" fill-rule="nonzero"/><path fill="rgb(1.179504%, 69.40918%, 72.158813%)" d="M 187.484375 238.222656 C 79.476562 238.222656 106.285156 132.527344 106.285156 132.527344 C 176.601562 183.457031 187.484375 238.222656 187.484375 238.222656 Z M 187.53125 238.222656 C 295.53125 238.222656 268.726562 132.527344 268.726562 132.527344 C 198.40625 183.457031 187.53125 238.222656 187.53125 238.222656 Z M 187.53125 238.222656 " fill-opacity="1" fill-rule="nonzero"/><g clip-path="url(#id4)"><path fill="rgb(1.179504%, 59.609985%, 61.959839%)" d="M 61.609375 217.519531 C 135.035156 195.015625 187.484375 238.226562 187.484375 238.226562 C 126.488281 280.96875 61.609375 217.519531 61.609375 217.519531 Z M 313.40625 217.519531 C 239.980469 195.015625 187.53125 238.226562 187.53125 238.226562 C 248.527344 280.96875 313.40625 217.519531 313.40625 217.519531 Z M 313.40625 217.519531 " fill-opacity="1" fill-rule="nonzero"/></g></svg>